<svg xmlns="http://www.w3.org/2000/svg" fill-rule="evenodd" stroke-linejoin="round" stroke-miterlimit="2" clip-rule="evenodd" viewBox="0 0 64 64" id="person">
  <path d="M 21.516,31.422 14.41,35.284 C 9.843,37.766 7,42.547 7,47.744 V 56 c 0,1.591 0.632,3.117 1.757,4.243 C 9.883,61.368 11.409,62 13,62 c 8.707,0 29.293,0 38,0 1.591,0 3.117,-0.632 4.243,-1.757 C 56.368,59.117 57,57.591 57,56 c 0,-2.377 0,-5.464 0,-8.256 0,-5.197 -2.843,-9.978 -7.41,-12.46 l -7,-3.805 C 44.916,28.354 46.071,24.028 46,19.231 45.908,13.077 44.313,8.862 41.92,6.156 39.381,3.286 35.908,2 32,2 28.103,2 24.539,3.368 21.958,6.279 19.505,9.046 17.908,13.287 18,19.292 c 0.074,4.786 1.229,9.044 3.516,12.13 z m 3.012,2.915 -8.208,4.461 C 13.041,40.58 11,44.012 11,47.744 c 0,0 0,8.256 0,8.256 0,0.53 0.211,1.039 0.586,1.414 C 11.961,57.789 12.47,58 13,58 h 38 c 0.53,0 1.039,-0.211 1.414,-0.586 C 52.789,57.039 53,56.53 53,56 c 0,0 0,-8.256 0,-8.256 0,-3.732 -2.041,-7.164 -5.32,-8.946 l -8.109,-4.407 c -2.055,1.392 -4.592,2.168 -7.596,2.131 C 29.012,36.485 26.534,35.7 24.528,34.337 Z M 32,6 c 2.715,0 5.16,0.813 6.924,2.807 1.909,2.158 3.003,5.574 3.076,10.484 0.107,7.188 -3.024,13.317 -9.975,13.231 C 25.041,32.435 22.111,26.452 22,19.23 21.927,14.501 23.019,11.112 24.951,8.932 26.756,6.896 29.274,6 32,6 Z"></path>
</svg>
